# xmcd
#
# Track frame offsets:
#	150
#	12042
#	24700
#	36892
#	50820
#	63212
#	77517
#	86425
#	99182
#	111407
#	122020
#	132587
#	143587
#	155125
#	166382
#
# Disc length: 2376 seconds
#
# Revision: 2
# Processed by: cddbd v1.5.2PL0 Copyright (c) Steve Scherf et al.
# Submitted via: audiograbber 1.83.01
#
DISCID=c109460f
DTITLE=Tammy Wynette and TRACK DATES - Love Songs
DYEAR=2003
DGENRE=Country
TTITLE0='Til I Get It Right (1972)
TTITLE1=Take Me To Your World (1967)
TTITLE2=Help Me Make It Through The Night (1974)
TTITLE3=Loving You Could Never Be Better (1972)
TTITLE4=Right Here In Your Arms (1974)
TTITLE5=No One Else In The World (1979)
TTITLE6=I Stayed Long Enough (1968)
TTITLE7=If You Think I Love You Now (I've Just Started) (1971)
TTITLE8=Walk Through This World With Me (1967)
TTITLE9=Forever Yours (1968)
TTITLE10=The Hawaiian Wedding Song (Ke Kali Nei Au) (1976)
TTITLE11=The Twelfth Of Never (1969)
TTITLE12=True And Lasting Love (1970)
TTITLE13=The Only Thing (1971)
TTITLE14=Stand By Your Man (1968)
EXTD=Track titles unabbreviated.\nTrack dates provided
EXTT0=
EXTT1=
EXTT2=
EXTT3=
EXTT4=
EXTT5=
EXTT6=
EXTT7=
EXTT8=
EXTT9=
EXTT10=
EXTT11=
EXTT12=
EXTT13=
EXTT14=
PLAYORDER=
